<svg xmlns="http://www.w3.org/2000/svg" viewBox="0 0 32 32">
  <defs>
    <linearGradient id="g" x1="0" y1="0" x2="32" y2="32">
      <stop stop-color="#7c5cff"/>
      <stop offset="0.5" stop-color="#d946ef"/>
      <stop offset="1" stop-color="#22d3ee"/>
    </linearGradient>
  </defs>
  <rect width="32" height="32" rx="8" fill="#0b0b16"/>
  <path d="M21 6c3 0 4.6 2.6 4.6 6S23.2 20.5 20 22.4c-2.2 1.3-3.2 3-3.5 5-.2 1.5-1.2 2.4-2.6 2.4-1.9 0-3-1.5-3-3.5 0-2.8 1.5-5.2 4-7.6C16.9 16.9 15.8 14.8 15.8 12c0-3.3 1.7-6 5.2-6Z" fill="url(#g)"/>
  <circle cx="10" cy="9.5" r="2.2" fill="url(#g)"/>
  <circle cx="7.2" cy="14" r="1.8" fill="url(#g)" opacity="0.85"/>
</svg>
